{
  "asset": {
    "generator": "gltfeditor.com",
    "version": "2.0"
  },
  "buffers": [
    {
      "uri": "data:application/octet-stream;base64,",
      "byteLength": 1305396
    }
  ],
  "bufferViews": [
    {
      "buffer": 0,
      "byteOffset": 0,
      "byteLength": 113280,
      "byteStride": 32,
      "target": 34962
    },
    {
      "buffer": 0,
      "byteOffset": 113280,
      "byteLength": 7080,
      "target": 34963
    },
    {
      "buffer": 0,
      "byteOffset": 120360,
      "byteLength": 148608,
      "byteStride": 32,
      "target": 34962
    },
    {
      "buffer": 0,
      "byteOffset": 268968,
      "byteLength": 9288,
      "target": 34963
    },
    {
      "buffer": 0,
      "byteOffset": 278256,
      "byteLength": 467136,
      "byteStride": 32,
      "target": 34962
    },
    {
      "buffer": 0,
      "byteOffset": 745392,
      "byteLength": 29196,
      "target": 34963
    },
    {
      "buffer": 0,
      "byteOffset": 774588,
      "byteLength": 499584,
      "byteStride": 32,
      "target": 34962
    },
    {
      "buffer": 0,
      "byteOffset": 1274172,
      "byteLength": 31224,
      "target": 34963
    }
  ],
  "accessors": [
    {
      "bufferView": 0,
      "byteOffset": 0,
      "componentType": 5126,
      "normalized": false,
      "count": 3540,
      "min": [
        -12.99036693572998,
        -3.5999999046325684,
        0
      ],
      "max": [
        12.99036693572998,
        3.5999999046325684,
        28
      ],
      "type": "VEC3"
    },
    {
      "bufferView": 0,
      "byteOffset": 12,
      "componentType": 5126,
      "normalized": false,
      "count": 3540,
      "min": [
        -1.0000044107437134,
        -1.0000044107437134,
        -1.0000044107437134
      ],
      "max": [
        1.0000044107437134,
        1.0000044107437134,
        1.0000044107437134
      ],
      "type": "VEC3"
    },
    {
      "bufferView": 0,
      "byteOffset": 24,
      "componentType": 5126,
      "normalized": false,
      "count": 3540,
      "min": [
        -12.99036693572998,
        -35.055633544921875
      ],
      "max": [
        12.99036693572998,
        37.055633544921875
      ],
      "type": "VEC2"
    },
    {
      "bufferView": 1,
      "byteOffset": 0,
      "componentType": 5123,
      "normalized": false,
      "count": 3540,
      "min": [
        0
      ],
      "max": [
        3539
      ],
      "type": "SCALAR"
    },
    {
      "bufferView": 2,
      "byteOffset": 0,
      "componentType": 5126,
      "normalized": false,
      "count": 4644,
      "min": [
        -11.497281074523926,
        -0.6000000238418579,
        2.5
      ],
      "max": [
        11.497281074523926,
        0.6000000238418579,
        27.5
      ],
      "type": "VEC3"
    },
    {
      "bufferView": 2,
      "byteOffset": 12,
      "componentType": 5126,
      "normalized": false,
      "count": 4644,
      "min": [
        -1.0000044107437134,
        -1.0000044107437134,
        -1.0000044107437134
      ],
      "max": [
        1.0000044107437134,
        1.0000044107437134,
        1.0000044107437134
      ],
      "type": "VEC3"
    },
    {
      "bufferView": 2,
      "byteOffset": 24,
      "componentType": 5126,
      "normalized": false,
      "count": 4644,
      "min": [
        -11.48912525177002,
        -31.52751922607422
      ],
      "max": [
        11.5,
        33.52751922607422
      ],
      "type": "VEC2"
    },
    {
      "bufferView": 3,
      "byteOffset": 0,
      "componentType": 5123,
      "normalized": false,
      "count": 4644,
      "min": [
        0
      ],
      "max": [
        4643
      ],
      "type": "SCALAR"
    },
    {
      "bufferView": 4,
      "byteOffset": 0,
      "componentType": 5126,
      "normalized": false,
      "count": 14598,
      "min": [
        -11,
        -4.694159030914307,
        5
      ],
      "max": [
        11,
        4.694159030914307,
        25
      ],
      "type": "VEC3"
    },
    {
      "bufferView": 4,
      "byteOffset": 12,
      "componentType": 5126,
      "normalized": false,
      "count": 14598,
      "min": [
        -1.0000044107437134,
        -1.0000044107437134,
        -1.0000044107437134
      ],
      "max": [
        1.0000044107437134,
        1.0000044107437134,
        1.0000044107437134
      ],
      "type": "VEC3"
    },
    {
      "bufferView": 4,
      "byteOffset": 24,
      "componentType": 5126,
      "normalized": false,
      "count": 14598,
      "min": [
        -10,
        -26.834444046020508
      ],
      "max": [
        25.875200271606445,
        30.823375701904297
      ],
      "type": "VEC2"
    },
    {
      "bufferView": 5,
      "byteOffset": 0,
      "componentType": 5123,
      "normalized": false,
      "count": 14598,
      "min": [
        0
      ],
      "max": [
        14597
      ],
      "type": "SCALAR"
    },
    {
      "bufferView": 6,
      "byteOffset": 0,
      "componentType": 5126,
      "normalized": false,
      "count": 15612,
      "min": [
        -2.8041069507598877,
        -2.809854507446289,
        11.5
      ],
      "max": [
        2.8041069507598877,
        2.809854507446289,
        18.700000762939453
      ],
      "type": "VEC3"
    },
    {
      "bufferView": 6,
      "byteOffset": 12,
      "componentType": 5126,
      "normalized": false,
      "count": 15612,
      "min": [
        -1.0000044107437134,
        -1.0000044107437134,
        -0.9922822117805481
      ],
      "max": [
        1.0000044107437134,
        1.0000044107437134,
        1.0000044107437134
      ],
      "type": "VEC3"
    },
    {
      "bufferView": 6,
      "byteOffset": 24,
      "componentType": 5126,
      "normalized": false,
      "count": 15612,
      "min": [
        -4.718289852142334,
        -6.931360244750977
      ],
      "max": [
        2.1909806728363037,
        8.931360244750977
      ],
      "type": "VEC2"
    },
    {
      "bufferView": 7,
      "byteOffset": 0,
      "componentType": 5123,
      "normalized": false,
      "count": 15612,
      "min": [
        0
      ],
      "max": [
        15611
      ],
      "type": "SCALAR"
    }
  ],
  "scene": 0,
  "scenes": [
    {
      "nodes": [
        12
      ]
    }
  ],
  "nodes": [
    {
      "name": "Body1",
      "translation": [
        0,
        0,
        0
      ],
      "rotation": [
        0,
        0,
        0,
        1
      ],
      "scale": [
        10,
        10,
        10
      ],
      "extensions": {
        "KHR_node_visibility": {
          "visible": true
        }
      },
      "mesh": 0
    },
    {
      "name": "Component1",
      "children": [
        0
      ],
      "extensions": {
        "KHR_node_visibility": {
          "visible": true
        }
      }
    },
    {
      "name": "Component1:1",
      "children": [
        1
      ],
      "extensions": {
        "KHR_node_visibility": {
          "visible": true
        }
      }
    },
    {
      "name": "Body1",
      "translation": [
        0,
        0,
        0
      ],
      "rotation": [
        0,
        0,
        0,
        1
      ],
      "scale": [
        10,
        10,
        10
      ],
      "extensions": {
        "KHR_node_visibility": {
          "visible": true
        }
      },
      "mesh": 1
    },
    {
      "name": "Component2",
      "children": [
        3
      ],
      "extensions": {
        "KHR_node_visibility": {
          "visible": true
        }
      }
    },
    {
      "name": "Component2:1",
      "children": [
        4
      ],
      "translation": [
        -0.29289326071739197,
        0.7071068286895752,
        0.09453384578227997
      ],
      "rotation": [
        0,
        0,
        0.3826834261417389,
        0.9238795042037964
      ],
      "scale": [
        1,
        1,
        1
      ],
      "extensions": {
        "KHR_node_visibility": {
          "visible": true
        }
      }
    },
    {
      "name": "Body1",
      "translation": [
        0,
        0,
        0
      ],
      "rotation": [
        0,
        0,
        0,
        1
      ],
      "scale": [
        10,
        10,
        10
      ],
      "extensions": {
        "KHR_node_visibility": {
          "visible": true
        }
      },
      "mesh": 2
    },
    {
      "name": "Component3",
      "children": [
        6
      ],
      "extensions": {
        "KHR_node_visibility": {
          "visible": true
        }
      }
    },
    {
      "name": "Component3:1",
      "children": [
        7
      ],
      "translation": [
        75.28336334228516,
        -74.71663665771484,
        44.3214111328125
      ],
      "rotation": [
        -0.3535533845424652,
        -0.1464466154575348,
        0.3535533845424652,
        0.8535534143447876
      ],
      "scale": [
        1,
        1,
        1
      ],
      "extensions": {
        "KHR_node_visibility": {
          "visible": true
        }
      }
    },
    {
      "name": "Body1",
      "translation": [
        0,
        0,
        0
      ],
      "rotation": [
        0,
        0,
        0,
        1
      ],
      "scale": [
        10,
        10,
        10
      ],
      "extensions": {
        "KHR_node_visibility": {
          "visible": true
        }
      },
      "mesh": 3
    },
    {
      "name": "Component4",
      "children": [
        9
      ],
      "extensions": {
        "KHR_node_visibility": {
          "visible": true
        }
      }
    },
    {
      "name": "Component4:1",
      "children": [
        10
      ],
      "extensions": {
        "KHR_node_visibility": {
          "visible": true
        }
      }
    },
    {
      "name": "PIS-A3-A3 v4",
      "children": [
        2,
        5,
        8,
        11
      ],
      "translation": [
        0,
        0,
        0
      ],
      "rotation": [
        -0.34694671630859375,
        -0.6159806251525879,
        -0.6162219643592834,
        0.3470826745033264
      ],
      "scale": [
        0.9999999403953552,
        1,
        0.9999999403953552
      ],
      "extensions": {
        "KHR_node_visibility": {
          "visible": true
        }
      }
    }
  ],
  "meshes": [
    {
      "primitives": [
        {
          "material": 0,
          "mode": 4,
          "attributes": {
            "POSITION": 0,
            "NORMAL": 1,
            "TEXCOORD_0": 2
          },
          "indices": 3
        }
      ]
    },
    {
      "primitives": [
        {
          "material": 1,
          "mode": 4,
          "attributes": {
            "POSITION": 4,
            "NORMAL": 5,
            "TEXCOORD_0": 6
          },
          "indices": 7
        }
      ]
    },
    {
      "primitives": [
        {
          "material": 1,
          "mode": 4,
          "attributes": {
            "POSITION": 8,
            "NORMAL": 9,
            "TEXCOORD_0": 10
          },
          "indices": 11
        }
      ]
    },
    {
      "primitives": [
        {
          "material": 2,
          "mode": 4,
          "attributes": {
            "POSITION": 12,
            "NORMAL": 13,
            "TEXCOORD_0": 14
          },
          "indices": 15
        }
      ]
    }
  ],
  "materials": [
    {
      "name": "Nickel - Polished",
      "pbrMetallicRoughness": {
        "baseColorFactor": [
          0.8196078431372549,
          0.8,
          0.7529411764705882,
          1
        ],
        "metallicFactor": 1,
        "roughnessFactor": 1
      },
      "emissiveFactor": [
        0,
        0,
        0
      ],
      "alphaMode": "OPAQUE",
      "doubleSided": false
    },
    {
      "name": "Lead - Satin",
      "pbrMetallicRoughness": {
        "baseColorFactor": [
          0.8156862745098039,
          0.8156862745098039,
          0.8156862745098039,
          1
        ],
        "metallicFactor": 1,
        "roughnessFactor": 1
      },
      "emissiveFactor": [
        0,
        0,
        0
      ],
      "alphaMode": "OPAQUE",
      "doubleSided": false
    },
    {
      "name": "Glass - Light Color (Blue)",
      "pbrMetallicRoughness": {
        "baseColorFactor": [
          0.4235294117647059,
          0.7686274509803922,
          0.8549019607843137,
          1
        ],
        "metallicFactor": 1,
        "roughnessFactor": 1
      },
      "emissiveFactor": [
        0,
        0,
        0
      ],
      "alphaMode": "OPAQUE",
      "doubleSided": false
    }
  ],
  "extensionsUsed": [
    "KHR_node_visibility"
  ]
}